<svg xmlns="http://www.w3.org/2000/svg" viewBox="0 0 64 64">
  <circle cx="32" cy="32" r="32" fill="#FAF6F0"/>
  <g fill="#C9A86A">
    <path d="M32 26 C39 22 39 10 32 5 C25 10 25 22 32 26 Z"/>
    <path d="M32 26 C39 22 39 10 32 5 C25 10 25 22 32 26 Z" transform="rotate(72 32 32)"/>
    <path d="M32 26 C39 22 39 10 32 5 C25 10 25 22 32 26 Z" transform="rotate(144 32 32)"/>
    <path d="M32 26 C39 22 39 10 32 5 C25 10 25 22 32 26 Z" transform="rotate(216 32 32)"/>
    <path d="M32 26 C39 22 39 10 32 5 C25 10 25 22 32 26 Z" transform="rotate(288 32 32)"/>
  </g>
  <circle cx="32" cy="32" r="4.5" fill="#9CAF88"/>
</svg>
